<svg width="32" height="32" viewBox="0 0 32 32" fill="none" xmlns="http://www.w3.org/2000/svg">
<path d="M21.3884 9.25336C18.9472 9.25336 17.9154 10.4183 16.2153 10.4183C14.4721 10.4183 13.1425 9.26183 11.027 9.26183C8.95632 9.26183 6.74818 10.5261 5.34591 12.6797C3.37693 15.7167 3.71114 21.4366 6.90015 26.3094C8.04085 28.0538 9.56421 30.01 11.5623 30.0312H11.5986C13.3351 30.0312 13.8509 28.8942 16.2407 28.8808H16.277C18.6311 28.8808 19.1034 30.0246 20.8326 30.0246H20.8689C22.867 30.0034 24.4721 27.8358 25.6128 26.0981C26.4338 24.8484 26.7389 24.2211 27.3686 22.8074C22.7556 21.0564 22.0145 14.5167 26.5767 12.0095C25.1841 10.2657 23.2272 9.25578 21.3824 9.25578L21.3884 9.25336Z" fill="white"/>
<path d="M20.8511 2.90778C19.398 3.00647 17.7026 3.93162 16.7097 5.13953C15.8087 6.23422 15.0676 7.85809 15.3583 9.43291H15.4745C17.0221 9.43291 18.606 8.50109 19.5312 7.30711C20.4224 6.17065 21.0981 4.5601 20.8511 2.90778Z" fill="white"/>
</svg>
