<svg width="22" height="22" viewBox="0 0 22 22" fill="none" xmlns="http://www.w3.org/2000/svg">
<path d="M8.98865 12.0067C9.42054 12.5847 9.97155 13.0629 10.6043 13.4089C11.2371 13.755 11.9368 13.9608 12.656 14.0123C13.3752 14.0639 14.0971 13.96 14.7726 13.7078C15.4482 13.4555 16.0617 13.0608 16.5714 12.5503L19.5885 9.53023C20.5044 8.58092 21.0113 7.30946 20.9998 5.98971C20.9884 4.66995 20.4595 3.4075 19.5272 2.47426C18.5949 1.54102 17.3337 1.01166 16.0153 1.00019C14.6969 0.988722 13.4267 1.49606 12.4783 2.41295L10.7486 4.13438M13.0114 9.99331C12.5795 9.41534 12.0284 8.93711 11.3957 8.59105C10.7629 8.245 10.0632 8.03921 9.344 7.98765C8.6248 7.93609 7.90293 8.03997 7.22736 8.29223C6.55179 8.54449 5.93832 8.93924 5.42855 9.4497L2.41153 12.4698C1.49557 13.4191 0.988733 14.6905 1.00019 16.0103C1.01165 17.33 1.54048 18.5925 2.47278 19.5257C3.40508 20.459 4.66626 20.9883 5.98469 20.9998C7.30311 21.0113 8.57329 20.5039 9.52166 19.5871L11.2414 17.8656" stroke="white" stroke-width="1.5" stroke-linecap="round" stroke-linejoin="round"/>
</svg>
