<svg width="13" height="13" viewBox="0 0 13 13" fill="none" xmlns="http://www.w3.org/2000/svg">
<g clip-path="url(#clip0_604_19152)">
<path d="M10.8214 1.92547C9.5668 0.663901 8.34027 0.635866 7.05067 1.92547L6.25869 2.71045C6.1886 2.78053 6.16757 2.87866 6.19561 2.96977C6.68622 4.6869 8.05992 6.06061 9.77706 6.55122C9.79808 6.55823 9.83313 6.55823 9.85415 6.55823C9.92424 6.55823 9.99433 6.53019 10.0434 6.48113L10.8214 5.69616C11.4591 5.05836 11.7745 4.44861 11.7745 3.82483C11.7745 3.19405 11.4591 2.57027 10.8214 1.92547Z" fill="white"/>
<path d="M8.60662 7.14245C8.41739 7.05134 8.23516 6.96022 8.06695 6.85509C7.92678 6.77099 7.7866 6.67987 7.65344 6.58175C7.5413 6.51167 7.41514 6.40653 7.28898 6.3014C7.27497 6.2944 7.23292 6.25935 7.17685 6.20328C6.95958 6.02806 6.72829 5.78977 6.51102 5.53045C6.497 5.51643 6.45495 5.47438 6.41991 5.4113C6.34982 5.3342 6.24469 5.20104 6.15357 5.05385C6.07648 4.95573 5.98537 4.81556 5.90126 4.66838C5.79613 4.49316 5.70502 4.31794 5.62091 4.13571C5.5298 3.93947 5.45971 3.75724 5.39663 3.58203L1.62595 7.35271C1.38065 7.59801 1.14235 8.06059 1.09329 8.40402L0.791915 10.4926C0.728837 10.9341 0.847985 11.3477 1.12132 11.621C1.35261 11.8523 1.668 11.9714 2.01844 11.9714C2.09553 11.9714 2.17263 11.9644 2.24973 11.9574L4.33131 11.663C4.67474 11.614 5.13731 11.3827 5.38262 11.1304L9.1533 7.35972C8.97808 7.30365 8.80287 7.22655 8.60662 7.14245Z" fill="white"/>
</g>
<defs>
<clipPath id="clip0_604_19152">
<rect width="12" height="12" fill="white" transform="translate(0.5 0.015625)"/>
</clipPath>
</defs>
</svg>
