<svg width="18" height="18" viewBox="0 0 18 18" fill="none" xmlns="http://www.w3.org/2000/svg">
<path d="M3.39762 9.067e-07C3.52202 -0.000171431 3.64523 0.0242252 3.76018 0.0717906C3.87513 0.119356 3.97955 0.189154 4.06746 0.277178L5.9615 2.17232L7.30119 3.51201L18 14.2108V18H14.2108L0.277176 4.06966C0.189045 3.98179 0.119123 3.87739 0.071413 3.76244C0.0237026 3.6475 -0.0008564 3.52427 -0.0008564 3.39982C-0.0008564 3.27536 0.0237026 3.15213 0.071413 3.03719C0.119123 2.92225 0.189045 2.81785 0.277176 2.72997L2.72777 0.277178C2.81568 0.189154 2.9201 0.119356 3.03505 0.0717906C3.15 0.0242252 3.27322 -0.000171431 3.39762 9.067e-07ZM3.39762 2.28671L2.28781 3.39652L3.51201 4.61962L4.62181 3.51201L3.39762 2.28671ZM5.9615 4.8517L4.8517 5.9615L14.9951 16.1049H16.1049V14.9951L5.9615 4.8517Z" fill="white"/>
</svg>
