<svg width="20" height="20" viewBox="0 0 20 20" fill="none" xmlns="http://www.w3.org/2000/svg">
<path fill-rule="evenodd" clip-rule="evenodd" d="M1.94014 2.3259L2.92928 8.9115H9.03247C9.55166 8.9115 9.97255 9.39883 9.97255 10C9.97255 10.6012 9.55166 11.0885 9.03247 11.0885H2.92928L1.94014 17.6741L17.4046 10L1.94014 2.3259ZM1.1844 10L0.0248826 2.28007C-0.0688549 1.65598 0.10555 1.0181 0.492396 0.570172C0.978458 0.00737042 1.71148 -0.156094 2.3433 0.157439L19.1423 8.49374C19.6626 8.75198 20 9.34445 20 10C20 10.6555 19.6626 11.248 19.1423 11.5063L2.3433 19.8425C1.71148 20.1561 0.978458 19.9926 0.492396 19.4299C0.10555 18.9819 -0.0688552 18.344 0.0248826 17.7199L1.1844 10Z" fill="white"/>
</svg>
