<svg width="22" height="22" viewBox="0 0 22 22" fill="none" xmlns="http://www.w3.org/2000/svg">
<path d="M20.9294 9.8505L20.8234 9.40097H11.0528V13.5363H16.8906C16.2845 16.4144 13.472 17.9294 11.1747 17.9294C9.50312 17.9294 7.74109 17.2263 6.57484 16.0961C5.95953 15.4903 5.46974 14.7691 5.13353 13.9738C4.79731 13.1784 4.62126 12.3246 4.61547 11.4611C4.61547 9.71925 5.39828 7.97691 6.53734 6.83081C7.6764 5.68472 9.39672 5.04347 11.1072 5.04347C13.0661 5.04347 14.47 6.08363 14.995 6.558L17.9336 3.63488C17.0716 2.87738 14.7034 0.968628 11.0125 0.968628C8.16484 0.968628 5.43437 2.05941 3.43844 4.04878C1.46875 6.00769 0.449219 8.84034 0.449219 11.4686C0.449219 14.0969 1.41391 16.788 3.32266 18.7624C5.36219 20.868 8.25062 21.9686 11.2248 21.9686C13.9309 21.9686 16.4959 20.9083 18.3241 18.9846C20.1212 17.0908 21.0508 14.4705 21.0508 11.7236C21.0508 10.5672 20.9345 9.8805 20.9294 9.8505Z" fill="white"/>
</svg>
