<svg width="13" height="14" viewBox="0 0 13 14" fill="none" xmlns="http://www.w3.org/2000/svg">
<path d="M12.7279 6.0625H7.96302C7.52975 6.0625 7.11422 5.91434 6.80785 5.65062C6.50147 5.38689 6.32935 5.02921 6.32935 4.65625V0.554687C6.32935 0.523607 6.31501 0.4938 6.28948 0.471823C6.26395 0.449847 6.22932 0.4375 6.19322 0.4375H3.06202C2.48431 0.4375 1.93027 0.635044 1.52178 0.986675C1.11328 1.33831 0.883789 1.81522 0.883789 2.3125V11.6875C0.883789 12.1848 1.11328 12.6617 1.52178 13.0133C1.93027 13.365 2.48431 13.5625 3.06202 13.5625H10.6858C11.2635 13.5625 11.8175 13.365 12.226 13.0133C12.6345 12.6617 12.864 12.1848 12.864 11.6875V6.17969C12.864 6.14861 12.8497 6.1188 12.8242 6.09682C12.7986 6.07484 12.764 6.0625 12.7279 6.0625ZM9.59669 10.75H4.15113C4.0067 10.75 3.86819 10.7006 3.76607 10.6127C3.66394 10.5248 3.60657 10.4056 3.60657 10.2812C3.60657 10.1569 3.66394 10.0377 3.76607 9.94979C3.86819 9.86188 4.0067 9.8125 4.15113 9.8125H9.59669C9.74112 9.8125 9.87963 9.86188 9.98175 9.94979C10.0839 10.0377 10.1413 10.1569 10.1413 10.2812C10.1413 10.4056 10.0839 10.5248 9.98175 10.6127C9.87963 10.7006 9.74112 10.75 9.59669 10.75ZM9.59669 8.40625H4.15113C4.0067 8.40625 3.86819 8.35686 3.76607 8.26895C3.66394 8.18105 3.60657 8.06182 3.60657 7.9375C3.60657 7.81318 3.66394 7.69395 3.76607 7.60604C3.86819 7.51813 4.0067 7.46875 4.15113 7.46875H9.59669C9.74112 7.46875 9.87963 7.51813 9.98175 7.60604C10.0839 7.69395 10.1413 7.81318 10.1413 7.9375C10.1413 8.06182 10.0839 8.18105 9.98175 8.26895C9.87963 8.35686 9.74112 8.40625 9.59669 8.40625Z" fill="white"/>
</svg>
