<svg width="15" height="15" viewBox="0 0 15 15" fill="none" xmlns="http://www.w3.org/2000/svg">
<path d="M1.55714 0.884277C1.14513 0.887415 0.750884 1.05248 0.459542 1.34382C0.1682 1.63516 0.00313726 2.02941 0 2.44141V13.3434C0.00313726 13.7554 0.1682 14.1496 0.459542 14.441C0.750884 14.7323 1.14513 14.8974 1.55714 14.9005H12.4591C12.8711 14.8974 13.2653 14.7323 13.5567 14.441C13.848 14.1496 14.0131 13.7554 14.0162 13.3434V2.44141C14.0131 2.02941 13.848 1.63516 13.5567 1.34382C13.2653 1.05248 12.8711 0.887415 12.4591 0.884277H1.55714ZM1.55714 2.44141H12.4591V13.3434H1.55714V2.44141ZM6.22954 3.99855V7.11382H3.11427V8.67096H6.22954V11.7852H7.78668V8.67096H10.901V7.11382H7.78668V3.99855H6.22954Z" fill="white"/>
</svg>
