<svg width="29" height="6" viewBox="0 0 29 6" fill="none" xmlns="http://www.w3.org/2000/svg">
<path d="M2.64518 5.0625C4.10607 5.0625 5.29036 4.01317 5.29036 2.71875C5.29036 1.42433 4.10607 0.375 2.64518 0.375C1.18429 0.375 0 1.42433 0 2.71875C0 4.01317 1.18429 5.0625 2.64518 5.0625Z" fill="white"/>
<path d="M14.1076 5.0625C15.5685 5.0625 16.7528 4.01317 16.7528 2.71875C16.7528 1.42433 15.5685 0.375 14.1076 0.375C12.6467 0.375 11.4624 1.42433 11.4624 2.71875C11.4624 4.01317 12.6467 5.0625 14.1076 5.0625Z" fill="white"/>
<path d="M28.2152 2.71875C28.2152 4.01317 27.0309 5.0625 25.5701 5.0625C24.1092 5.0625 22.9249 4.01317 22.9249 2.71875C22.9249 1.42433 24.1092 0.375 25.5701 0.375C27.0309 0.375 28.2152 1.42433 28.2152 2.71875Z" fill="white"/>
</svg>
