<svg width="24" height="24" viewBox="0 0 24 24" fill="none" xmlns="http://www.w3.org/2000/svg">
<path d="M4.94668 5.31813H19.0092C19.1734 5.31805 19.3375 5.32847 19.5005 5.34933C19.4453 4.96163 19.3121 4.58913 19.109 4.2543C18.9059 3.91946 18.6371 3.62921 18.3188 3.40106C18.0006 3.17291 17.6394 3.01158 17.257 2.92679C16.8747 2.842 16.4792 2.83552 16.0943 2.90773L4.5292 4.88219H4.51602C3.79007 5.02101 3.14451 5.43174 2.71118 6.03048C3.36403 5.56612 4.14553 5.31709 4.94668 5.31813V5.31813Z" fill="white"/>
<path d="M19.0093 6.37479H4.94678C4.20111 6.3756 3.48621 6.67218 2.95894 7.19945C2.43167 7.72672 2.13509 8.44162 2.13428 9.18729V17.6248C2.13509 18.3705 2.43167 19.0854 2.95894 19.6126C3.48621 20.1399 4.20111 20.4365 4.94678 20.4373H19.0093C19.7549 20.4365 20.4698 20.1399 20.9971 19.6126C21.5244 19.0854 21.821 18.3705 21.8218 17.6248V9.18729C21.821 8.44162 21.5244 7.72672 20.9971 7.19945C20.4698 6.67218 19.7549 6.3756 19.0093 6.37479V6.37479ZM16.9219 14.8123C16.6437 14.8123 16.3719 14.7298 16.1406 14.5753C15.9093 14.4208 15.7291 14.2011 15.6227 13.9442C15.5162 13.6872 15.4884 13.4045 15.5426 13.1317C15.5969 12.8589 15.7308 12.6083 15.9275 12.4117C16.1242 12.215 16.3747 12.0811 16.6475 12.0268C16.9203 11.9725 17.2031 12.0004 17.46 12.1068C17.717 12.2133 17.9366 12.3935 18.0911 12.6248C18.2456 12.856 18.3281 13.1279 18.3281 13.406C18.3281 13.779 18.18 14.1367 17.9162 14.4004C17.6525 14.6641 17.2948 14.8123 16.9219 14.8123Z" fill="white"/>
<path d="M2.15625 12.1513V7.77878C2.15625 6.82648 2.68359 5.22995 4.51392 4.8841C6.06738 4.59274 7.60547 4.59274 7.60547 4.59274C7.60547 4.59274 8.61621 5.29587 7.78125 5.29587C6.94629 5.29587 6.96826 6.37253 7.78125 6.37253C8.59424 6.37253 7.78125 7.40524 7.78125 7.40524L4.50732 11.1186L2.15625 12.1513Z" fill="white"/>
</svg>
