<svg width="17" height="17" viewBox="0 0 17 17" fill="none" xmlns="http://www.w3.org/2000/svg">
<path d="M7.66667 1.81258H5C3.59987 1.81258 2.8998 1.81258 2.36502 2.07828C1.89462 2.31199 1.51217 2.68492 1.27248 3.14361C1 3.66508 1 4.34771 1 5.71297V9.9384C1 10.6941 1 11.0719 1.08519 11.3819C1.31635 12.2232 1.99022 12.8802 2.85295 13.1057C3.17087 13.1887 3.55836 13.1887 4.33333 13.1887V15.0865C4.33333 15.5195 4.33333 15.736 4.42436 15.8472C4.50352 15.9439 4.62356 16.0001 4.75045 16C4.89636 15.9998 5.06973 15.8646 5.41646 15.5941L7.40434 14.0434C7.81043 13.7266 8.01347 13.5682 8.23957 13.4556C8.44017 13.3557 8.65369 13.2827 8.87435 13.2385C9.12306 13.1887 9.38308 13.1887 9.90312 13.1887H11.1667C12.5668 13.1887 13.2669 13.1887 13.8016 12.923C14.272 12.6893 14.6545 12.3164 14.8942 11.8577C15.1667 11.3362 15.1667 10.6536 15.1667 9.28833V9.12581M15.2678 1.714C16.2441 2.666 16.2441 4.20949 15.2678 5.16149C14.2915 6.11349 12.7085 6.11349 11.7322 5.16149C10.7559 4.20949 10.7559 2.666 11.7322 1.714C12.7085 0.762 14.2915 0.762 15.2678 1.714Z" stroke="white" stroke-width="2" stroke-linecap="round" stroke-linejoin="round"/>
</svg>
