<svg width="16" height="14" viewBox="0 0 16 14" fill="none" xmlns="http://www.w3.org/2000/svg">
<path d="M15 13V11.6667C15 10.4241 14.1077 9.38004 12.9 9.08401M10.45 1.19384C11.4761 1.58943 12.2 2.54754 12.2 3.66667C12.2 4.78579 11.4761 5.7439 10.45 6.13949M11.5 13C11.5 11.7575 11.5 11.1362 11.2869 10.6462C11.0027 9.99277 10.4576 9.47364 9.77151 9.20299C9.25695 9 8.60464 9 7.3 9H5.2C3.89536 9 3.24305 9 2.72849 9.20299C2.04241 9.47364 1.49732 9.99277 1.21314 10.6462C1 11.1362 1 11.7575 1 13M9.05 3.66667C9.05 5.13943 7.7964 6.33333 6.25 6.33333C4.7036 6.33333 3.45 5.13943 3.45 3.66667C3.45 2.19391 4.7036 1 6.25 1C7.7964 1 9.05 2.19391 9.05 3.66667Z" stroke="white" stroke-width="2" stroke-linecap="round" stroke-linejoin="round"/>
</svg>
