<svg width="15" height="15" viewBox="0 0 15 15" fill="none" xmlns="http://www.w3.org/2000/svg">
<path d="M3.047 14.5316H2.1095C1.92302 14.5316 1.74417 14.4575 1.61231 14.3257C1.48045 14.1938 1.40637 14.015 1.40637 13.8285V9.60974C1.40637 9.42326 1.48045 9.24442 1.61231 9.11256C1.74417 8.9807 1.92302 8.90662 2.1095 8.90662H3.047C3.23348 8.90662 3.41232 8.9807 3.54418 9.11256C3.67604 9.24442 3.75012 9.42326 3.75012 9.60974V13.8285C3.75012 14.015 3.67604 14.1938 3.54418 14.3257C3.41232 14.4575 3.23348 14.5316 3.047 14.5316Z" fill="#BC96E6"/>
<path d="M9.6095 14.5308H8.672C8.48552 14.5308 8.30667 14.4567 8.17481 14.3248C8.04295 14.193 7.96887 14.0141 7.96887 13.8276V6.79639C7.96887 6.60991 8.04295 6.43106 8.17481 6.2992C8.30667 6.16734 8.48552 6.09326 8.672 6.09326H9.6095C9.79598 6.09326 9.97482 6.16734 10.1067 6.2992C10.2385 6.43106 10.3126 6.60991 10.3126 6.79639V13.8276C10.3126 14.0141 10.2385 14.193 10.1067 14.3248C9.97482 14.4567 9.79598 14.5308 9.6095 14.5308Z" fill="#BC96E6"/>
<path d="M12.8907 14.5311H11.9532C11.7668 14.5311 11.5879 14.457 11.4561 14.3252C11.3242 14.1933 11.2501 14.0145 11.2501 13.828V3.5155C11.2501 3.32902 11.3242 3.15018 11.4561 3.01832C11.5879 2.88646 11.7668 2.81238 11.9532 2.81238H12.8907C13.0772 2.81238 13.2561 2.88646 13.3879 3.01832C13.5198 3.15018 13.5939 3.32902 13.5939 3.5155V13.828C13.5939 14.0145 13.5198 14.1933 13.3879 14.3252C13.2561 14.457 13.0772 14.5311 12.8907 14.5311Z" fill="#BC96E6"/>
<path d="M6.32825 14.531H5.39075C5.20427 14.531 5.02542 14.4569 4.89356 14.3251C4.7617 14.1932 4.68762 14.0144 4.68762 13.8279V1.17163C4.68762 0.98515 4.7617 0.806308 4.89356 0.674446C5.02542 0.542585 5.20427 0.468506 5.39075 0.468506H6.32825C6.51473 0.468506 6.69357 0.542585 6.82543 0.674446C6.95729 0.806308 7.03137 0.98515 7.03137 1.17163V13.8279C7.03137 14.0144 6.95729 14.1932 6.82543 14.3251C6.69357 14.4569 6.51473 14.531 6.32825 14.531Z" fill="#BC96E6"/>
</svg>
