<svg width="16" height="16" viewBox="0 0 16 16" fill="none" xmlns="http://www.w3.org/2000/svg">
<path d="M1 8L7.74956 11.3948C7.84139 11.441 7.8873 11.4641 7.93546 11.4732C7.97811 11.4812 8.02189 11.4812 8.06454 11.4732C8.1127 11.4641 8.15861 11.441 8.25044 11.3948L15 8M1 11.5208L7.74956 14.9156C7.84139 14.9618 7.8873 14.9849 7.93546 14.994C7.97811 15.002 8.02189 15.002 8.06454 14.994C8.1127 14.9849 8.15861 14.9618 8.25044 14.9156L15 11.5208M1 4.47922L7.74956 1.08441C7.84139 1.03822 7.8873 1.01513 7.93546 1.00604C7.97811 0.997987 8.02189 0.997987 8.06454 1.00604C8.1127 1.01513 8.15861 1.03822 8.25044 1.08441L15 4.47922L8.25044 7.87404C8.15861 7.92022 8.1127 7.94332 8.06454 7.95241C8.02189 7.96046 7.97811 7.96046 7.93546 7.95241C7.8873 7.94332 7.84139 7.92022 7.74956 7.87404L1 4.47922Z" stroke="#BC96E6" stroke-width="2" stroke-linecap="round" stroke-linejoin="round"/>
</svg>
