<svg width="16" height="14" viewBox="0 0 16 14" fill="none" xmlns="http://www.w3.org/2000/svg">
<path d="M10.8 10.75L12.9 13M12.9 13L15 10.75M12.9 13V8.5M15 4.75H1M15 6.25V3.4C15 2.55992 15 2.13988 14.8474 1.81902C14.7132 1.53677 14.499 1.3073 14.2356 1.16349C13.9361 1 13.5441 1 12.76 1H3.24C2.45593 1 2.06389 1 1.76441 1.16349C1.50099 1.3073 1.28681 1.53677 1.15259 1.81901C1 2.13988 1 2.55992 1 3.4V9.1C1 9.94008 1 10.3601 1.15259 10.681C1.28681 10.9632 1.50099 11.1927 1.76441 11.3365C2.06389 11.5 2.45593 11.5 3.24 11.5H8" stroke="#BC96E6" stroke-width="2" stroke-linecap="round" stroke-linejoin="round"/>
</svg>
