<svg width="16" height="20" viewBox="0 0 16 20" fill="none" xmlns="http://www.w3.org/2000/svg">
<path d="M9.75 1.24258V4.96007C9.75 5.46411 9.75 5.71613 9.84537 5.90866C9.92926 6.078 10.0631 6.21568 10.2278 6.30197C10.4149 6.40006 10.66 6.40006 11.15 6.40006H14.7642M4.5 12.7V15.4M11.5 10.9V15.4M8 8.65V15.4M15 8.1894V14.68C15 16.1921 15 16.9482 14.7139 17.5258C14.4622 18.0338 14.0607 18.4469 13.5667 18.7057C13.0052 19 12.2701 19 10.8 19H5.2C3.72986 19 2.99479 19 2.43327 18.7057C1.93935 18.4469 1.53778 18.0338 1.28611 17.5258C1 16.9482 1 16.1921 1 14.68V5.32C1 3.80786 1 3.05179 1.28611 2.47423C1.53778 1.96619 1.93935 1.55314 2.43327 1.29428C2.99479 1 3.72986 1 5.2 1H8.0103C8.65235 1 8.97338 1 9.27548 1.0746C9.54333 1.14074 9.79938 1.24983 10.0342 1.39787C10.2992 1.56484 10.5262 1.79833 10.9802 2.2653L13.7698 5.1347C14.2238 5.60167 14.4508 5.83516 14.6132 6.10763C14.7571 6.34921 14.8632 6.61258 14.9275 6.88807C15 7.19881 15 7.52901 15 8.1894Z" stroke="white" stroke-width="2" stroke-linecap="round" stroke-linejoin="round"/>
</svg>
