<svg width="16" height="16" viewBox="0 0 16 16" fill="none" xmlns="http://www.w3.org/2000/svg">
<path d="M5.99538 5.9954L3.05025 3.05027M3.05025 12.9498L6.01758 9.98244M10.0027 10.0046L12.9479 12.9498M12.9479 3.05027L9.98011 6.01803M15 8C15 11.866 11.866 15 8 15C4.13401 15 1 11.866 1 8C1 4.13401 4.13401 1 8 1C11.866 1 15 4.13401 15 8ZM10.8 8C10.8 9.5464 9.5464 10.8 8 10.8C6.4536 10.8 5.2 9.5464 5.2 8C5.2 6.4536 6.4536 5.2 8 5.2C9.5464 5.2 10.8 6.4536 10.8 8Z" stroke="#BC96E6" stroke-width="2" stroke-linecap="round" stroke-linejoin="round"/>
</svg>
