<svg width="16" height="16" viewBox="0 0 16 16" fill="none" xmlns="http://www.w3.org/2000/svg">
<path d="M5.96281 13.1598L6.41957 14.0799C6.55536 14.3538 6.77695 14.5865 7.05748 14.7498C7.33801 14.9131 7.66542 15 8 15C8.33458 15 8.66199 14.9131 8.94252 14.7498C9.22305 14.5865 9.44465 14.3538 9.58043 14.0799L10.0372 13.1598C10.1998 12.8333 10.4733 12.5611 10.8187 12.382C11.1663 12.2024 11.5685 12.1259 11.9676 12.1634L13.0852 12.27C13.4178 12.3015 13.7536 12.2459 14.0517 12.1099C14.3498 11.9739 14.5974 11.7634 14.7646 11.5039C14.932 11.2445 15.0117 10.9472 14.9941 10.648C14.9766 10.3488 14.8624 10.0607 14.6656 9.81844L14.0039 9.00411C13.7683 8.71199 13.6424 8.36037 13.6444 8C13.6443 7.64061 13.7714 7.29045 14.0074 6.99978L14.6691 6.18544C14.8659 5.94323 14.98 5.65505 14.9976 5.35587C15.0152 5.05669 14.9354 4.75938 14.7681 4.5C14.6009 4.24046 14.3532 4.02994 14.0551 3.89396C13.757 3.75798 13.4213 3.70237 13.0886 3.73389L11.971 3.84044C11.5719 3.87799 11.1698 3.80148 10.8222 3.62189C10.4761 3.44178 10.2025 3.16815 10.0407 2.84022L9.58043 1.92011C9.44465 1.64622 9.22305 1.4135 8.94252 1.25018C8.66199 1.08686 8.33458 0.999951 8 1C7.66542 0.999951 7.33801 1.08686 7.05748 1.25018C6.77695 1.4135 6.55536 1.64622 6.41957 1.92011L5.96281 2.84022C5.80098 3.16815 5.5274 3.44178 5.18128 3.62189C4.83367 3.80148 4.43154 3.87799 4.03243 3.84044L2.91137 3.73389C2.5787 3.70237 2.24296 3.75798 1.94486 3.89396C1.64677 4.02994 1.39912 4.24046 1.23195 4.5C1.06456 4.75938 0.984815 5.05669 1.00239 5.35587C1.01996 5.65505 1.13409 5.94323 1.33094 6.18544L1.99264 6.99978C2.22861 7.29045 2.35569 7.64061 2.35561 8C2.35569 8.35939 2.22861 8.70955 1.99264 9.00022L1.33094 9.81456C1.13409 10.0568 1.01996 10.345 1.00239 10.6441C0.984815 10.9433 1.06456 11.2406 1.23195 11.5C1.39929 11.7594 1.64696 11.9698 1.94501 12.1058C2.24307 12.2417 2.57872 12.2974 2.91137 12.2661L4.02896 12.1596C4.42806 12.122 4.8302 12.1985 5.17781 12.3781C5.52522 12.5577 5.80007 12.8314 5.96281 13.1598Z" stroke="white" stroke-width="2" stroke-linecap="round" stroke-linejoin="round"/>
<path d="M7.9986 10.1C9.29349 10.1 10.3432 9.1598 10.3432 8C10.3432 6.8402 9.29349 5.9 7.9986 5.9C6.70372 5.9 5.65401 6.8402 5.65401 8C5.65401 9.1598 6.70372 10.1 7.9986 10.1Z" stroke="white" stroke-width="2" stroke-linecap="round" stroke-linejoin="round"/>
</svg>
